<mxfile host="app.diagrams.net" modified="2022-11-01T11:56:27.209Z" agent="5.0 (Windows NT 10.0; Win64; x64) AppleWebKit/537.36 (KHTML, like Gecko) Chrome/106.0.0.0 Safari/537.36" etag="2vGKLNf8KPWjOXqkmhku" version="20.5.1" type="github">
  <diagram id="wuI_xoS-Hsmy7RkR-qor" name="Page-1">
    <mxGraphModel dx="713" dy="387" grid="1" gridSize="10" guides="1" tooltips="1" connect="1" arrows="1" fold="1" page="1" pageScale="1" pageWidth="413" pageHeight="291" math="0" shadow="0">
      <root>
        <mxCell id="0" />
        <mxCell id="1" parent="0" />
        <mxCell id="Vr0Jnky3QBz1iTAETpDp-29" style="orthogonalLoop=1;jettySize=auto;html=1;exitX=1;exitY=0.5;exitDx=0;exitDy=0;entryX=0;entryY=0.5;entryDx=0;entryDy=0;rounded=0;endArrow=none;endFill=0;strokeColor=#999999;strokeWidth=1;jumpSize=6;" edge="1" parent="1" source="Vr0Jnky3QBz1iTAETpDp-1" target="Vr0Jnky3QBz1iTAETpDp-10">
          <mxGeometry relative="1" as="geometry" />
        </mxCell>
        <mxCell id="Vr0Jnky3QBz1iTAETpDp-37" style="edgeStyle=none;rounded=0;jumpSize=6;orthogonalLoop=1;jettySize=auto;html=1;entryX=0;entryY=0.5;entryDx=0;entryDy=0;strokeColor=#999999;strokeWidth=1;endArrow=none;endFill=0;exitX=1;exitY=0.5;exitDx=0;exitDy=0;" edge="1" parent="1" source="Vr0Jnky3QBz1iTAETpDp-1" target="Vr0Jnky3QBz1iTAETpDp-11">
          <mxGeometry relative="1" as="geometry" />
        </mxCell>
        <mxCell id="Vr0Jnky3QBz1iTAETpDp-38" style="edgeStyle=none;rounded=0;jumpSize=6;orthogonalLoop=1;jettySize=auto;html=1;entryX=0;entryY=0.5;entryDx=0;entryDy=0;strokeColor=#999999;strokeWidth=1;endArrow=none;endFill=0;exitX=1;exitY=0.5;exitDx=0;exitDy=0;" edge="1" parent="1" source="Vr0Jnky3QBz1iTAETpDp-1" target="Vr0Jnky3QBz1iTAETpDp-12">
          <mxGeometry relative="1" as="geometry" />
        </mxCell>
        <mxCell id="Vr0Jnky3QBz1iTAETpDp-39" style="edgeStyle=none;rounded=0;jumpSize=6;orthogonalLoop=1;jettySize=auto;html=1;entryX=0;entryY=0.5;entryDx=0;entryDy=0;strokeColor=#999999;strokeWidth=1;endArrow=none;endFill=0;exitX=1;exitY=0.5;exitDx=0;exitDy=0;" edge="1" parent="1" source="Vr0Jnky3QBz1iTAETpDp-1" target="Vr0Jnky3QBz1iTAETpDp-13">
          <mxGeometry relative="1" as="geometry" />
        </mxCell>
        <mxCell id="Vr0Jnky3QBz1iTAETpDp-1" value="" style="ellipse;whiteSpace=wrap;html=1;aspect=fixed;fillColor=#dae8fc;strokeColor=#6c8ebf;" vertex="1" parent="1">
          <mxGeometry x="75" y="50" width="20" height="20" as="geometry" />
        </mxCell>
        <mxCell id="Vr0Jnky3QBz1iTAETpDp-30" style="edgeStyle=none;rounded=0;orthogonalLoop=1;jettySize=auto;html=1;entryX=0;entryY=0.5;entryDx=0;entryDy=0;strokeColor=#999999;endArrow=none;endFill=0;exitX=1;exitY=0.5;exitDx=0;exitDy=0;" edge="1" parent="1" source="Vr0Jnky3QBz1iTAETpDp-2" target="Vr0Jnky3QBz1iTAETpDp-10">
          <mxGeometry relative="1" as="geometry" />
        </mxCell>
        <mxCell id="Vr0Jnky3QBz1iTAETpDp-40" style="edgeStyle=none;rounded=0;jumpSize=6;orthogonalLoop=1;jettySize=auto;html=1;entryX=0;entryY=0.5;entryDx=0;entryDy=0;strokeColor=#999999;strokeWidth=1;endArrow=none;endFill=0;exitX=1;exitY=0.5;exitDx=0;exitDy=0;" edge="1" parent="1" source="Vr0Jnky3QBz1iTAETpDp-2" target="Vr0Jnky3QBz1iTAETpDp-11">
          <mxGeometry relative="1" as="geometry" />
        </mxCell>
        <mxCell id="Vr0Jnky3QBz1iTAETpDp-41" style="edgeStyle=none;rounded=0;jumpSize=6;orthogonalLoop=1;jettySize=auto;html=1;entryX=0;entryY=0.5;entryDx=0;entryDy=0;strokeColor=#999999;strokeWidth=1;endArrow=none;endFill=0;exitX=1;exitY=0.5;exitDx=0;exitDy=0;" edge="1" parent="1" source="Vr0Jnky3QBz1iTAETpDp-2" target="Vr0Jnky3QBz1iTAETpDp-12">
          <mxGeometry relative="1" as="geometry" />
        </mxCell>
        <mxCell id="Vr0Jnky3QBz1iTAETpDp-42" style="edgeStyle=none;rounded=0;jumpSize=6;orthogonalLoop=1;jettySize=auto;html=1;entryX=0;entryY=0.5;entryDx=0;entryDy=0;strokeColor=#999999;strokeWidth=1;endArrow=none;endFill=0;exitX=1;exitY=0.5;exitDx=0;exitDy=0;" edge="1" parent="1" source="Vr0Jnky3QBz1iTAETpDp-2" target="Vr0Jnky3QBz1iTAETpDp-13">
          <mxGeometry relative="1" as="geometry" />
        </mxCell>
        <mxCell id="Vr0Jnky3QBz1iTAETpDp-2" value="" style="ellipse;whiteSpace=wrap;html=1;aspect=fixed;fillColor=#dae8fc;strokeColor=#6c8ebf;" vertex="1" parent="1">
          <mxGeometry x="75" y="80" width="20" height="20" as="geometry" />
        </mxCell>
        <mxCell id="Vr0Jnky3QBz1iTAETpDp-31" style="edgeStyle=none;rounded=0;orthogonalLoop=1;jettySize=auto;html=1;entryX=0;entryY=0.5;entryDx=0;entryDy=0;strokeColor=#999999;endArrow=none;endFill=0;" edge="1" parent="1" source="Vr0Jnky3QBz1iTAETpDp-3" target="Vr0Jnky3QBz1iTAETpDp-10">
          <mxGeometry relative="1" as="geometry" />
        </mxCell>
        <mxCell id="Vr0Jnky3QBz1iTAETpDp-43" style="edgeStyle=none;rounded=0;jumpSize=6;orthogonalLoop=1;jettySize=auto;html=1;strokeColor=#999999;strokeWidth=1;endArrow=none;endFill=0;exitX=1;exitY=0.5;exitDx=0;exitDy=0;" edge="1" parent="1" source="Vr0Jnky3QBz1iTAETpDp-3">
          <mxGeometry relative="1" as="geometry">
            <mxPoint x="135" y="150" as="targetPoint" />
          </mxGeometry>
        </mxCell>
        <mxCell id="Vr0Jnky3QBz1iTAETpDp-44" style="edgeStyle=none;rounded=0;jumpSize=6;orthogonalLoop=1;jettySize=auto;html=1;strokeColor=#999999;strokeWidth=1;endArrow=none;endFill=0;exitX=1;exitY=0.5;exitDx=0;exitDy=0;" edge="1" parent="1" source="Vr0Jnky3QBz1iTAETpDp-3">
          <mxGeometry relative="1" as="geometry">
            <mxPoint x="135" y="180" as="targetPoint" />
          </mxGeometry>
        </mxCell>
        <mxCell id="Vr0Jnky3QBz1iTAETpDp-45" style="edgeStyle=none;rounded=0;jumpSize=6;orthogonalLoop=1;jettySize=auto;html=1;entryX=0;entryY=0.5;entryDx=0;entryDy=0;strokeColor=#999999;strokeWidth=1;endArrow=none;endFill=0;exitX=1;exitY=0.5;exitDx=0;exitDy=0;" edge="1" parent="1" source="Vr0Jnky3QBz1iTAETpDp-3" target="Vr0Jnky3QBz1iTAETpDp-13">
          <mxGeometry relative="1" as="geometry" />
        </mxCell>
        <mxCell id="Vr0Jnky3QBz1iTAETpDp-3" value="" style="ellipse;whiteSpace=wrap;html=1;aspect=fixed;fillColor=#dae8fc;strokeColor=#6c8ebf;" vertex="1" parent="1">
          <mxGeometry x="75" y="110" width="20" height="20" as="geometry" />
        </mxCell>
        <mxCell id="Vr0Jnky3QBz1iTAETpDp-32" style="edgeStyle=none;rounded=0;orthogonalLoop=1;jettySize=auto;html=1;entryX=0;entryY=0.5;entryDx=0;entryDy=0;strokeColor=#999999;endArrow=none;endFill=0;exitX=1;exitY=0.5;exitDx=0;exitDy=0;" edge="1" parent="1" source="Vr0Jnky3QBz1iTAETpDp-4" target="Vr0Jnky3QBz1iTAETpDp-10">
          <mxGeometry relative="1" as="geometry" />
        </mxCell>
        <mxCell id="Vr0Jnky3QBz1iTAETpDp-47" style="edgeStyle=none;rounded=0;jumpSize=6;orthogonalLoop=1;jettySize=auto;html=1;entryX=0;entryY=0.5;entryDx=0;entryDy=0;strokeColor=#999999;strokeWidth=1;endArrow=none;endFill=0;" edge="1" parent="1" source="Vr0Jnky3QBz1iTAETpDp-4" target="Vr0Jnky3QBz1iTAETpDp-11">
          <mxGeometry relative="1" as="geometry" />
        </mxCell>
        <mxCell id="Vr0Jnky3QBz1iTAETpDp-48" style="edgeStyle=none;rounded=0;jumpSize=6;orthogonalLoop=1;jettySize=auto;html=1;strokeColor=#999999;strokeWidth=1;endArrow=none;endFill=0;exitX=1;exitY=0.5;exitDx=0;exitDy=0;" edge="1" parent="1" source="Vr0Jnky3QBz1iTAETpDp-4">
          <mxGeometry relative="1" as="geometry">
            <mxPoint x="135" y="180" as="targetPoint" />
          </mxGeometry>
        </mxCell>
        <mxCell id="Vr0Jnky3QBz1iTAETpDp-49" style="edgeStyle=none;rounded=0;jumpSize=6;orthogonalLoop=1;jettySize=auto;html=1;entryX=0;entryY=0.5;entryDx=0;entryDy=0;strokeColor=#999999;strokeWidth=1;endArrow=none;endFill=0;exitX=1;exitY=0.5;exitDx=0;exitDy=0;" edge="1" parent="1" source="Vr0Jnky3QBz1iTAETpDp-4" target="Vr0Jnky3QBz1iTAETpDp-13">
          <mxGeometry relative="1" as="geometry" />
        </mxCell>
        <mxCell id="Vr0Jnky3QBz1iTAETpDp-4" value="" style="ellipse;whiteSpace=wrap;html=1;aspect=fixed;fillColor=#dae8fc;strokeColor=#6c8ebf;" vertex="1" parent="1">
          <mxGeometry x="75" y="140" width="20" height="20" as="geometry" />
        </mxCell>
        <mxCell id="Vr0Jnky3QBz1iTAETpDp-33" style="edgeStyle=none;rounded=0;orthogonalLoop=1;jettySize=auto;html=1;entryX=0;entryY=0.5;entryDx=0;entryDy=0;strokeColor=#999999;endArrow=none;endFill=0;exitX=0.5;exitY=0;exitDx=0;exitDy=0;" edge="1" parent="1" source="Vr0Jnky3QBz1iTAETpDp-5" target="Vr0Jnky3QBz1iTAETpDp-10">
          <mxGeometry relative="1" as="geometry" />
        </mxCell>
        <mxCell id="Vr0Jnky3QBz1iTAETpDp-50" style="edgeStyle=none;rounded=0;jumpSize=6;orthogonalLoop=1;jettySize=auto;html=1;entryX=0;entryY=0.5;entryDx=0;entryDy=0;strokeColor=#999999;strokeWidth=1;endArrow=none;endFill=0;exitX=1;exitY=0.5;exitDx=0;exitDy=0;" edge="1" parent="1" source="Vr0Jnky3QBz1iTAETpDp-5" target="Vr0Jnky3QBz1iTAETpDp-11">
          <mxGeometry relative="1" as="geometry" />
        </mxCell>
        <mxCell id="Vr0Jnky3QBz1iTAETpDp-51" style="edgeStyle=none;rounded=0;jumpSize=6;orthogonalLoop=1;jettySize=auto;html=1;entryX=0;entryY=0.5;entryDx=0;entryDy=0;strokeColor=#999999;strokeWidth=1;endArrow=none;endFill=0;" edge="1" parent="1" source="Vr0Jnky3QBz1iTAETpDp-5" target="Vr0Jnky3QBz1iTAETpDp-12">
          <mxGeometry relative="1" as="geometry" />
        </mxCell>
        <mxCell id="Vr0Jnky3QBz1iTAETpDp-52" style="edgeStyle=none;rounded=0;jumpSize=6;orthogonalLoop=1;jettySize=auto;html=1;entryX=0;entryY=0.5;entryDx=0;entryDy=0;strokeColor=#999999;strokeWidth=1;endArrow=none;endFill=0;exitX=0.5;exitY=0;exitDx=0;exitDy=0;" edge="1" parent="1" source="Vr0Jnky3QBz1iTAETpDp-5" target="Vr0Jnky3QBz1iTAETpDp-13">
          <mxGeometry relative="1" as="geometry" />
        </mxCell>
        <mxCell id="Vr0Jnky3QBz1iTAETpDp-5" value="" style="ellipse;whiteSpace=wrap;html=1;aspect=fixed;fillColor=#dae8fc;strokeColor=#6c8ebf;direction=south;" vertex="1" parent="1">
          <mxGeometry x="75" y="170" width="20" height="20" as="geometry" />
        </mxCell>
        <mxCell id="Vr0Jnky3QBz1iTAETpDp-34" style="edgeStyle=none;rounded=0;orthogonalLoop=1;jettySize=auto;html=1;entryX=0;entryY=0.5;entryDx=0;entryDy=0;strokeColor=#999999;endArrow=none;endFill=0;exitX=1;exitY=0.5;exitDx=0;exitDy=0;" edge="1" parent="1" source="Vr0Jnky3QBz1iTAETpDp-6" target="Vr0Jnky3QBz1iTAETpDp-10">
          <mxGeometry relative="1" as="geometry" />
        </mxCell>
        <mxCell id="Vr0Jnky3QBz1iTAETpDp-53" style="edgeStyle=none;rounded=0;jumpSize=6;orthogonalLoop=1;jettySize=auto;html=1;entryX=0;entryY=0.5;entryDx=0;entryDy=0;strokeColor=#999999;strokeWidth=1;endArrow=none;endFill=0;exitX=1;exitY=0.5;exitDx=0;exitDy=0;" edge="1" parent="1" source="Vr0Jnky3QBz1iTAETpDp-6" target="Vr0Jnky3QBz1iTAETpDp-11">
          <mxGeometry relative="1" as="geometry" />
        </mxCell>
        <mxCell id="Vr0Jnky3QBz1iTAETpDp-54" style="edgeStyle=none;rounded=0;jumpSize=6;orthogonalLoop=1;jettySize=auto;html=1;entryX=0;entryY=0.5;entryDx=0;entryDy=0;strokeColor=#999999;strokeWidth=1;endArrow=none;endFill=0;exitX=1;exitY=0.5;exitDx=0;exitDy=0;" edge="1" parent="1" source="Vr0Jnky3QBz1iTAETpDp-6" target="Vr0Jnky3QBz1iTAETpDp-12">
          <mxGeometry relative="1" as="geometry" />
        </mxCell>
        <mxCell id="Vr0Jnky3QBz1iTAETpDp-55" style="edgeStyle=none;rounded=0;jumpSize=6;orthogonalLoop=1;jettySize=auto;html=1;strokeColor=#999999;strokeWidth=1;endArrow=none;endFill=0;" edge="1" parent="1" source="Vr0Jnky3QBz1iTAETpDp-6">
          <mxGeometry relative="1" as="geometry">
            <mxPoint x="135" y="210" as="targetPoint" />
          </mxGeometry>
        </mxCell>
        <mxCell id="Vr0Jnky3QBz1iTAETpDp-6" value="" style="ellipse;whiteSpace=wrap;html=1;aspect=fixed;fillColor=#dae8fc;strokeColor=#6c8ebf;" vertex="1" parent="1">
          <mxGeometry x="75" y="200" width="20" height="20" as="geometry" />
        </mxCell>
        <mxCell id="Vr0Jnky3QBz1iTAETpDp-35" style="edgeStyle=none;rounded=0;orthogonalLoop=1;jettySize=auto;html=1;strokeColor=#999999;endArrow=none;endFill=0;exitX=1;exitY=0.5;exitDx=0;exitDy=0;" edge="1" parent="1" source="Vr0Jnky3QBz1iTAETpDp-7">
          <mxGeometry relative="1" as="geometry">
            <mxPoint x="135" y="120" as="targetPoint" />
          </mxGeometry>
        </mxCell>
        <mxCell id="Vr0Jnky3QBz1iTAETpDp-56" style="edgeStyle=none;rounded=0;jumpSize=6;orthogonalLoop=1;jettySize=auto;html=1;entryX=0;entryY=0.5;entryDx=0;entryDy=0;strokeColor=#999999;strokeWidth=1;endArrow=none;endFill=0;exitX=1;exitY=0.5;exitDx=0;exitDy=0;" edge="1" parent="1" source="Vr0Jnky3QBz1iTAETpDp-7" target="Vr0Jnky3QBz1iTAETpDp-11">
          <mxGeometry relative="1" as="geometry" />
        </mxCell>
        <mxCell id="Vr0Jnky3QBz1iTAETpDp-57" style="edgeStyle=none;rounded=0;jumpSize=6;orthogonalLoop=1;jettySize=auto;html=1;strokeColor=#999999;strokeWidth=1;endArrow=none;endFill=0;exitX=1;exitY=0.5;exitDx=0;exitDy=0;" edge="1" parent="1" source="Vr0Jnky3QBz1iTAETpDp-7">
          <mxGeometry relative="1" as="geometry">
            <mxPoint x="135" y="180" as="targetPoint" />
          </mxGeometry>
        </mxCell>
        <mxCell id="Vr0Jnky3QBz1iTAETpDp-58" style="edgeStyle=none;rounded=0;jumpSize=6;orthogonalLoop=1;jettySize=auto;html=1;entryX=0;entryY=0.5;entryDx=0;entryDy=0;strokeColor=#999999;strokeWidth=1;endArrow=none;endFill=0;exitX=1;exitY=0.5;exitDx=0;exitDy=0;" edge="1" parent="1" source="Vr0Jnky3QBz1iTAETpDp-7" target="Vr0Jnky3QBz1iTAETpDp-13">
          <mxGeometry relative="1" as="geometry" />
        </mxCell>
        <mxCell id="Vr0Jnky3QBz1iTAETpDp-7" value="" style="ellipse;whiteSpace=wrap;html=1;aspect=fixed;fillColor=#dae8fc;strokeColor=#6c8ebf;" vertex="1" parent="1">
          <mxGeometry x="75" y="230" width="20" height="20" as="geometry" />
        </mxCell>
        <mxCell id="Vr0Jnky3QBz1iTAETpDp-36" style="edgeStyle=none;rounded=0;orthogonalLoop=1;jettySize=auto;html=1;strokeColor=#999999;endArrow=none;endFill=0;exitX=1;exitY=0.5;exitDx=0;exitDy=0;" edge="1" parent="1" source="Vr0Jnky3QBz1iTAETpDp-8">
          <mxGeometry relative="1" as="geometry">
            <mxPoint x="135" y="120" as="targetPoint" />
          </mxGeometry>
        </mxCell>
        <mxCell id="Vr0Jnky3QBz1iTAETpDp-60" style="edgeStyle=none;rounded=0;jumpSize=6;orthogonalLoop=1;jettySize=auto;html=1;strokeColor=#999999;strokeWidth=1;endArrow=none;endFill=0;exitX=1;exitY=0.5;exitDx=0;exitDy=0;" edge="1" parent="1" source="Vr0Jnky3QBz1iTAETpDp-8">
          <mxGeometry relative="1" as="geometry">
            <mxPoint x="135" y="150" as="targetPoint" />
          </mxGeometry>
        </mxCell>
        <mxCell id="Vr0Jnky3QBz1iTAETpDp-61" style="edgeStyle=none;rounded=0;jumpSize=6;orthogonalLoop=1;jettySize=auto;html=1;strokeColor=#999999;strokeWidth=1;endArrow=none;endFill=0;exitX=1;exitY=0.5;exitDx=0;exitDy=0;" edge="1" parent="1" source="Vr0Jnky3QBz1iTAETpDp-8">
          <mxGeometry relative="1" as="geometry">
            <mxPoint x="135" y="180" as="targetPoint" />
          </mxGeometry>
        </mxCell>
        <mxCell id="Vr0Jnky3QBz1iTAETpDp-62" style="edgeStyle=none;rounded=0;jumpSize=6;orthogonalLoop=1;jettySize=auto;html=1;strokeColor=#999999;strokeWidth=1;endArrow=none;endFill=0;exitX=1;exitY=0.5;exitDx=0;exitDy=0;" edge="1" parent="1" source="Vr0Jnky3QBz1iTAETpDp-8">
          <mxGeometry relative="1" as="geometry">
            <mxPoint x="135" y="210" as="targetPoint" />
          </mxGeometry>
        </mxCell>
        <mxCell id="Vr0Jnky3QBz1iTAETpDp-8" value="" style="ellipse;whiteSpace=wrap;html=1;aspect=fixed;fillColor=#dae8fc;strokeColor=#6c8ebf;" vertex="1" parent="1">
          <mxGeometry x="75" y="260" width="20" height="20" as="geometry" />
        </mxCell>
        <mxCell id="Vr0Jnky3QBz1iTAETpDp-95" style="edgeStyle=none;rounded=0;jumpSize=6;orthogonalLoop=1;jettySize=auto;html=1;entryX=0;entryY=0.5;entryDx=0;entryDy=0;strokeColor=#999999;strokeWidth=1;endArrow=none;endFill=0;exitX=1;exitY=0.5;exitDx=0;exitDy=0;" edge="1" parent="1" source="Vr0Jnky3QBz1iTAETpDp-10" target="Vr0Jnky3QBz1iTAETpDp-14">
          <mxGeometry relative="1" as="geometry" />
        </mxCell>
        <mxCell id="Vr0Jnky3QBz1iTAETpDp-96" style="edgeStyle=none;rounded=0;jumpSize=6;orthogonalLoop=1;jettySize=auto;html=1;entryX=0;entryY=0.5;entryDx=0;entryDy=0;strokeColor=#999999;strokeWidth=1;endArrow=none;endFill=0;exitX=1;exitY=0.5;exitDx=0;exitDy=0;" edge="1" parent="1" source="Vr0Jnky3QBz1iTAETpDp-10" target="Vr0Jnky3QBz1iTAETpDp-15">
          <mxGeometry relative="1" as="geometry" />
        </mxCell>
        <mxCell id="Vr0Jnky3QBz1iTAETpDp-10" value="" style="ellipse;whiteSpace=wrap;html=1;aspect=fixed;fillColor=#bac8d3;strokeColor=#23445d;" vertex="1" parent="1">
          <mxGeometry x="135" y="110" width="20" height="20" as="geometry" />
        </mxCell>
        <mxCell id="Vr0Jnky3QBz1iTAETpDp-97" style="edgeStyle=none;rounded=0;jumpSize=6;orthogonalLoop=1;jettySize=auto;html=1;strokeColor=#999999;strokeWidth=1;endArrow=none;endFill=0;" edge="1" parent="1" source="Vr0Jnky3QBz1iTAETpDp-11">
          <mxGeometry relative="1" as="geometry">
            <mxPoint x="195" y="150" as="targetPoint" />
          </mxGeometry>
        </mxCell>
        <mxCell id="Vr0Jnky3QBz1iTAETpDp-98" style="edgeStyle=none;rounded=0;jumpSize=6;orthogonalLoop=1;jettySize=auto;html=1;strokeColor=#999999;strokeWidth=1;endArrow=none;endFill=0;exitX=1;exitY=0.5;exitDx=0;exitDy=0;" edge="1" parent="1" source="Vr0Jnky3QBz1iTAETpDp-11">
          <mxGeometry relative="1" as="geometry">
            <mxPoint x="195" y="180" as="targetPoint" />
          </mxGeometry>
        </mxCell>
        <mxCell id="Vr0Jnky3QBz1iTAETpDp-11" value="" style="ellipse;whiteSpace=wrap;html=1;aspect=fixed;fillColor=#bac8d3;strokeColor=#23445d;" vertex="1" parent="1">
          <mxGeometry x="135" y="140" width="20" height="20" as="geometry" />
        </mxCell>
        <mxCell id="Vr0Jnky3QBz1iTAETpDp-99" style="edgeStyle=none;rounded=0;jumpSize=6;orthogonalLoop=1;jettySize=auto;html=1;entryX=0;entryY=0.5;entryDx=0;entryDy=0;strokeColor=#999999;strokeWidth=1;endArrow=none;endFill=0;exitX=1;exitY=0.5;exitDx=0;exitDy=0;" edge="1" parent="1" source="Vr0Jnky3QBz1iTAETpDp-12" target="Vr0Jnky3QBz1iTAETpDp-14">
          <mxGeometry relative="1" as="geometry" />
        </mxCell>
        <mxCell id="Vr0Jnky3QBz1iTAETpDp-100" style="edgeStyle=none;rounded=0;jumpSize=6;orthogonalLoop=1;jettySize=auto;html=1;entryX=0;entryY=0.5;entryDx=0;entryDy=0;strokeColor=#999999;strokeWidth=1;endArrow=none;endFill=0;" edge="1" parent="1" source="Vr0Jnky3QBz1iTAETpDp-12" target="Vr0Jnky3QBz1iTAETpDp-15">
          <mxGeometry relative="1" as="geometry" />
        </mxCell>
        <mxCell id="Vr0Jnky3QBz1iTAETpDp-12" value="" style="ellipse;whiteSpace=wrap;html=1;aspect=fixed;fillColor=#bac8d3;strokeColor=#23445d;" vertex="1" parent="1">
          <mxGeometry x="135" y="170" width="20" height="20" as="geometry" />
        </mxCell>
        <mxCell id="Vr0Jnky3QBz1iTAETpDp-101" style="edgeStyle=none;rounded=0;jumpSize=6;orthogonalLoop=1;jettySize=auto;html=1;entryX=0;entryY=0.5;entryDx=0;entryDy=0;strokeColor=#999999;strokeWidth=1;endArrow=none;endFill=0;exitX=1;exitY=0.5;exitDx=0;exitDy=0;" edge="1" parent="1" source="Vr0Jnky3QBz1iTAETpDp-13" target="Vr0Jnky3QBz1iTAETpDp-14">
          <mxGeometry relative="1" as="geometry" />
        </mxCell>
        <mxCell id="Vr0Jnky3QBz1iTAETpDp-102" style="edgeStyle=none;rounded=0;jumpSize=6;orthogonalLoop=1;jettySize=auto;html=1;strokeColor=#999999;strokeWidth=1;endArrow=none;endFill=0;exitX=1;exitY=0.5;exitDx=0;exitDy=0;" edge="1" parent="1" source="Vr0Jnky3QBz1iTAETpDp-13">
          <mxGeometry relative="1" as="geometry">
            <mxPoint x="195" y="180" as="targetPoint" />
          </mxGeometry>
        </mxCell>
        <mxCell id="Vr0Jnky3QBz1iTAETpDp-13" value="" style="ellipse;whiteSpace=wrap;html=1;aspect=fixed;fillColor=#bac8d3;strokeColor=#23445d;" vertex="1" parent="1">
          <mxGeometry x="135" y="200" width="20" height="20" as="geometry" />
        </mxCell>
        <mxCell id="Vr0Jnky3QBz1iTAETpDp-103" style="edgeStyle=none;rounded=0;jumpSize=6;orthogonalLoop=1;jettySize=auto;html=1;entryX=0;entryY=0.5;entryDx=0;entryDy=0;strokeColor=#999999;strokeWidth=1;endArrow=none;endFill=0;exitX=1;exitY=0.5;exitDx=0;exitDy=0;" edge="1" parent="1" source="Vr0Jnky3QBz1iTAETpDp-14" target="Vr0Jnky3QBz1iTAETpDp-17">
          <mxGeometry relative="1" as="geometry" />
        </mxCell>
        <mxCell id="Vr0Jnky3QBz1iTAETpDp-104" style="edgeStyle=none;rounded=0;jumpSize=6;orthogonalLoop=1;jettySize=auto;html=1;entryX=0;entryY=0.5;entryDx=0;entryDy=0;strokeColor=#999999;strokeWidth=1;endArrow=none;endFill=0;" edge="1" parent="1" source="Vr0Jnky3QBz1iTAETpDp-14" target="Vr0Jnky3QBz1iTAETpDp-18">
          <mxGeometry relative="1" as="geometry" />
        </mxCell>
        <mxCell id="Vr0Jnky3QBz1iTAETpDp-105" style="edgeStyle=none;rounded=0;jumpSize=6;orthogonalLoop=1;jettySize=auto;html=1;entryX=0;entryY=0.5;entryDx=0;entryDy=0;strokeColor=#999999;strokeWidth=1;endArrow=none;endFill=0;exitX=1;exitY=0.5;exitDx=0;exitDy=0;" edge="1" parent="1" source="Vr0Jnky3QBz1iTAETpDp-14" target="Vr0Jnky3QBz1iTAETpDp-19">
          <mxGeometry relative="1" as="geometry" />
        </mxCell>
        <mxCell id="Vr0Jnky3QBz1iTAETpDp-106" style="edgeStyle=none;rounded=0;jumpSize=6;orthogonalLoop=1;jettySize=auto;html=1;entryX=0;entryY=0.5;entryDx=0;entryDy=0;strokeColor=#999999;strokeWidth=1;endArrow=none;endFill=0;exitX=1;exitY=0.5;exitDx=0;exitDy=0;" edge="1" parent="1" source="Vr0Jnky3QBz1iTAETpDp-14" target="Vr0Jnky3QBz1iTAETpDp-20">
          <mxGeometry relative="1" as="geometry" />
        </mxCell>
        <mxCell id="Vr0Jnky3QBz1iTAETpDp-14" value="" style="ellipse;whiteSpace=wrap;html=1;aspect=fixed;fillColor=#bac8d3;strokeColor=#23445d;" vertex="1" parent="1">
          <mxGeometry x="195" y="140" width="20" height="20" as="geometry" />
        </mxCell>
        <mxCell id="Vr0Jnky3QBz1iTAETpDp-107" style="edgeStyle=none;rounded=0;jumpSize=6;orthogonalLoop=1;jettySize=auto;html=1;strokeColor=#999999;strokeWidth=1;endArrow=none;endFill=0;exitX=1;exitY=0.5;exitDx=0;exitDy=0;" edge="1" parent="1" source="Vr0Jnky3QBz1iTAETpDp-15">
          <mxGeometry relative="1" as="geometry">
            <mxPoint x="255" y="120" as="targetPoint" />
          </mxGeometry>
        </mxCell>
        <mxCell id="Vr0Jnky3QBz1iTAETpDp-108" style="edgeStyle=none;rounded=0;jumpSize=6;orthogonalLoop=1;jettySize=auto;html=1;strokeColor=#999999;strokeWidth=1;endArrow=none;endFill=0;exitX=1;exitY=0.5;exitDx=0;exitDy=0;" edge="1" parent="1" source="Vr0Jnky3QBz1iTAETpDp-15">
          <mxGeometry relative="1" as="geometry">
            <mxPoint x="255" y="150" as="targetPoint" />
          </mxGeometry>
        </mxCell>
        <mxCell id="Vr0Jnky3QBz1iTAETpDp-109" style="edgeStyle=none;rounded=0;jumpSize=6;orthogonalLoop=1;jettySize=auto;html=1;entryX=0;entryY=0.5;entryDx=0;entryDy=0;strokeColor=#999999;strokeWidth=1;endArrow=none;endFill=0;" edge="1" parent="1" source="Vr0Jnky3QBz1iTAETpDp-15" target="Vr0Jnky3QBz1iTAETpDp-19">
          <mxGeometry relative="1" as="geometry" />
        </mxCell>
        <mxCell id="Vr0Jnky3QBz1iTAETpDp-110" style="edgeStyle=none;rounded=0;jumpSize=6;orthogonalLoop=1;jettySize=auto;html=1;strokeColor=#999999;strokeWidth=1;endArrow=none;endFill=0;exitX=1;exitY=0.5;exitDx=0;exitDy=0;" edge="1" parent="1" source="Vr0Jnky3QBz1iTAETpDp-15">
          <mxGeometry relative="1" as="geometry">
            <mxPoint x="255" y="210" as="targetPoint" />
          </mxGeometry>
        </mxCell>
        <mxCell id="Vr0Jnky3QBz1iTAETpDp-15" value="" style="ellipse;whiteSpace=wrap;html=1;aspect=fixed;fillColor=#bac8d3;strokeColor=#23445d;" vertex="1" parent="1">
          <mxGeometry x="195" y="170" width="20" height="20" as="geometry" />
        </mxCell>
        <mxCell id="Vr0Jnky3QBz1iTAETpDp-63" style="edgeStyle=none;rounded=0;jumpSize=6;orthogonalLoop=1;jettySize=auto;html=1;entryX=0;entryY=0.5;entryDx=0;entryDy=0;strokeColor=#999999;strokeWidth=1;endArrow=none;endFill=0;exitX=1;exitY=0.5;exitDx=0;exitDy=0;" edge="1" parent="1" source="Vr0Jnky3QBz1iTAETpDp-17" target="Vr0Jnky3QBz1iTAETpDp-21">
          <mxGeometry relative="1" as="geometry" />
        </mxCell>
        <mxCell id="Vr0Jnky3QBz1iTAETpDp-64" style="edgeStyle=none;rounded=0;jumpSize=6;orthogonalLoop=1;jettySize=auto;html=1;entryX=0;entryY=0.5;entryDx=0;entryDy=0;strokeColor=#999999;strokeWidth=1;endArrow=none;endFill=0;exitX=1;exitY=0.5;exitDx=0;exitDy=0;" edge="1" parent="1" source="Vr0Jnky3QBz1iTAETpDp-17" target="Vr0Jnky3QBz1iTAETpDp-22">
          <mxGeometry relative="1" as="geometry" />
        </mxCell>
        <mxCell id="Vr0Jnky3QBz1iTAETpDp-65" style="edgeStyle=none;rounded=0;jumpSize=6;orthogonalLoop=1;jettySize=auto;html=1;entryX=0;entryY=0.5;entryDx=0;entryDy=0;strokeColor=#999999;strokeWidth=1;endArrow=none;endFill=0;" edge="1" parent="1" source="Vr0Jnky3QBz1iTAETpDp-17" target="Vr0Jnky3QBz1iTAETpDp-23">
          <mxGeometry relative="1" as="geometry" />
        </mxCell>
        <mxCell id="Vr0Jnky3QBz1iTAETpDp-66" style="edgeStyle=none;rounded=0;jumpSize=6;orthogonalLoop=1;jettySize=auto;html=1;entryX=0;entryY=0.5;entryDx=0;entryDy=0;strokeColor=#999999;strokeWidth=1;endArrow=none;endFill=0;exitX=1;exitY=0.5;exitDx=0;exitDy=0;" edge="1" parent="1" source="Vr0Jnky3QBz1iTAETpDp-17" target="Vr0Jnky3QBz1iTAETpDp-24">
          <mxGeometry relative="1" as="geometry" />
        </mxCell>
        <mxCell id="Vr0Jnky3QBz1iTAETpDp-67" style="edgeStyle=none;rounded=0;jumpSize=6;orthogonalLoop=1;jettySize=auto;html=1;entryX=0;entryY=0.5;entryDx=0;entryDy=0;strokeColor=#999999;strokeWidth=1;endArrow=none;endFill=0;exitX=1;exitY=0.5;exitDx=0;exitDy=0;" edge="1" parent="1" source="Vr0Jnky3QBz1iTAETpDp-17" target="Vr0Jnky3QBz1iTAETpDp-25">
          <mxGeometry relative="1" as="geometry" />
        </mxCell>
        <mxCell id="Vr0Jnky3QBz1iTAETpDp-68" style="edgeStyle=none;rounded=0;jumpSize=6;orthogonalLoop=1;jettySize=auto;html=1;entryX=0;entryY=0.5;entryDx=0;entryDy=0;strokeColor=#999999;strokeWidth=1;endArrow=none;endFill=0;exitX=1;exitY=0.5;exitDx=0;exitDy=0;" edge="1" parent="1" source="Vr0Jnky3QBz1iTAETpDp-17" target="Vr0Jnky3QBz1iTAETpDp-26">
          <mxGeometry relative="1" as="geometry" />
        </mxCell>
        <mxCell id="Vr0Jnky3QBz1iTAETpDp-69" style="edgeStyle=none;rounded=0;jumpSize=6;orthogonalLoop=1;jettySize=auto;html=1;entryX=0;entryY=0.5;entryDx=0;entryDy=0;strokeColor=#999999;strokeWidth=1;endArrow=none;endFill=0;exitX=1;exitY=0.5;exitDx=0;exitDy=0;" edge="1" parent="1" source="Vr0Jnky3QBz1iTAETpDp-17" target="Vr0Jnky3QBz1iTAETpDp-27">
          <mxGeometry relative="1" as="geometry" />
        </mxCell>
        <mxCell id="Vr0Jnky3QBz1iTAETpDp-70" style="edgeStyle=none;rounded=0;jumpSize=6;orthogonalLoop=1;jettySize=auto;html=1;entryX=0;entryY=0.5;entryDx=0;entryDy=0;strokeColor=#999999;strokeWidth=1;endArrow=none;endFill=0;exitX=1;exitY=0.5;exitDx=0;exitDy=0;" edge="1" parent="1" source="Vr0Jnky3QBz1iTAETpDp-17" target="Vr0Jnky3QBz1iTAETpDp-28">
          <mxGeometry relative="1" as="geometry" />
        </mxCell>
        <mxCell id="Vr0Jnky3QBz1iTAETpDp-17" value="" style="ellipse;whiteSpace=wrap;html=1;aspect=fixed;fillColor=#bac8d3;strokeColor=#23445d;" vertex="1" parent="1">
          <mxGeometry x="255" y="110" width="20" height="20" as="geometry" />
        </mxCell>
        <mxCell id="Vr0Jnky3QBz1iTAETpDp-71" style="edgeStyle=none;rounded=0;jumpSize=6;orthogonalLoop=1;jettySize=auto;html=1;entryX=0;entryY=0.5;entryDx=0;entryDy=0;strokeColor=#999999;strokeWidth=1;endArrow=none;endFill=0;exitX=1;exitY=0.5;exitDx=0;exitDy=0;" edge="1" parent="1" source="Vr0Jnky3QBz1iTAETpDp-18" target="Vr0Jnky3QBz1iTAETpDp-21">
          <mxGeometry relative="1" as="geometry" />
        </mxCell>
        <mxCell id="Vr0Jnky3QBz1iTAETpDp-72" style="edgeStyle=none;rounded=0;jumpSize=6;orthogonalLoop=1;jettySize=auto;html=1;entryX=0;entryY=0.5;entryDx=0;entryDy=0;strokeColor=#999999;strokeWidth=1;endArrow=none;endFill=0;exitX=1;exitY=0.5;exitDx=0;exitDy=0;" edge="1" parent="1" source="Vr0Jnky3QBz1iTAETpDp-18" target="Vr0Jnky3QBz1iTAETpDp-22">
          <mxGeometry relative="1" as="geometry" />
        </mxCell>
        <mxCell id="Vr0Jnky3QBz1iTAETpDp-73" style="edgeStyle=none;rounded=0;jumpSize=6;orthogonalLoop=1;jettySize=auto;html=1;entryX=0;entryY=0.5;entryDx=0;entryDy=0;strokeColor=#999999;strokeWidth=1;endArrow=none;endFill=0;exitX=1;exitY=0.5;exitDx=0;exitDy=0;" edge="1" parent="1" source="Vr0Jnky3QBz1iTAETpDp-18" target="Vr0Jnky3QBz1iTAETpDp-23">
          <mxGeometry relative="1" as="geometry" />
        </mxCell>
        <mxCell id="Vr0Jnky3QBz1iTAETpDp-74" style="edgeStyle=none;rounded=0;jumpSize=6;orthogonalLoop=1;jettySize=auto;html=1;entryX=0;entryY=0.5;entryDx=0;entryDy=0;strokeColor=#999999;strokeWidth=1;endArrow=none;endFill=0;" edge="1" parent="1" source="Vr0Jnky3QBz1iTAETpDp-18" target="Vr0Jnky3QBz1iTAETpDp-24">
          <mxGeometry relative="1" as="geometry" />
        </mxCell>
        <mxCell id="Vr0Jnky3QBz1iTAETpDp-75" style="edgeStyle=none;rounded=0;jumpSize=6;orthogonalLoop=1;jettySize=auto;html=1;entryX=0;entryY=0.5;entryDx=0;entryDy=0;strokeColor=#999999;strokeWidth=1;endArrow=none;endFill=0;exitX=1;exitY=0.5;exitDx=0;exitDy=0;" edge="1" parent="1" source="Vr0Jnky3QBz1iTAETpDp-18" target="Vr0Jnky3QBz1iTAETpDp-25">
          <mxGeometry relative="1" as="geometry" />
        </mxCell>
        <mxCell id="Vr0Jnky3QBz1iTAETpDp-76" style="edgeStyle=none;rounded=0;jumpSize=6;orthogonalLoop=1;jettySize=auto;html=1;strokeColor=#999999;strokeWidth=1;endArrow=none;endFill=0;exitX=1;exitY=0.5;exitDx=0;exitDy=0;" edge="1" parent="1" source="Vr0Jnky3QBz1iTAETpDp-18">
          <mxGeometry relative="1" as="geometry">
            <mxPoint x="315" y="210" as="targetPoint" />
          </mxGeometry>
        </mxCell>
        <mxCell id="Vr0Jnky3QBz1iTAETpDp-77" style="edgeStyle=none;rounded=0;jumpSize=6;orthogonalLoop=1;jettySize=auto;html=1;entryX=-0.021;entryY=0.354;entryDx=0;entryDy=0;entryPerimeter=0;strokeColor=#999999;strokeWidth=1;endArrow=none;endFill=0;exitX=1;exitY=0.5;exitDx=0;exitDy=0;" edge="1" parent="1" source="Vr0Jnky3QBz1iTAETpDp-18" target="Vr0Jnky3QBz1iTAETpDp-27">
          <mxGeometry relative="1" as="geometry" />
        </mxCell>
        <mxCell id="Vr0Jnky3QBz1iTAETpDp-78" style="edgeStyle=none;rounded=0;jumpSize=6;orthogonalLoop=1;jettySize=auto;html=1;entryX=0;entryY=0.5;entryDx=0;entryDy=0;strokeColor=#999999;strokeWidth=1;endArrow=none;endFill=0;exitX=1;exitY=0.5;exitDx=0;exitDy=0;" edge="1" parent="1" source="Vr0Jnky3QBz1iTAETpDp-18" target="Vr0Jnky3QBz1iTAETpDp-28">
          <mxGeometry relative="1" as="geometry" />
        </mxCell>
        <mxCell id="Vr0Jnky3QBz1iTAETpDp-18" value="" style="ellipse;whiteSpace=wrap;html=1;aspect=fixed;fillColor=#bac8d3;strokeColor=#23445d;" vertex="1" parent="1">
          <mxGeometry x="255" y="140" width="20" height="20" as="geometry" />
        </mxCell>
        <mxCell id="Vr0Jnky3QBz1iTAETpDp-79" style="edgeStyle=none;rounded=0;jumpSize=6;orthogonalLoop=1;jettySize=auto;html=1;entryX=0;entryY=0.5;entryDx=0;entryDy=0;strokeColor=#999999;strokeWidth=1;endArrow=none;endFill=0;exitX=1;exitY=0.5;exitDx=0;exitDy=0;" edge="1" parent="1" source="Vr0Jnky3QBz1iTAETpDp-19" target="Vr0Jnky3QBz1iTAETpDp-21">
          <mxGeometry relative="1" as="geometry" />
        </mxCell>
        <mxCell id="Vr0Jnky3QBz1iTAETpDp-80" style="edgeStyle=none;rounded=0;jumpSize=6;orthogonalLoop=1;jettySize=auto;html=1;entryX=0;entryY=0.5;entryDx=0;entryDy=0;strokeColor=#999999;strokeWidth=1;endArrow=none;endFill=0;exitX=1;exitY=0.5;exitDx=0;exitDy=0;" edge="1" parent="1" source="Vr0Jnky3QBz1iTAETpDp-19" target="Vr0Jnky3QBz1iTAETpDp-22">
          <mxGeometry relative="1" as="geometry" />
        </mxCell>
        <mxCell id="Vr0Jnky3QBz1iTAETpDp-81" style="edgeStyle=none;rounded=0;jumpSize=6;orthogonalLoop=1;jettySize=auto;html=1;entryX=0;entryY=0.5;entryDx=0;entryDy=0;strokeColor=#999999;strokeWidth=1;endArrow=none;endFill=0;exitX=1;exitY=0.5;exitDx=0;exitDy=0;" edge="1" parent="1" source="Vr0Jnky3QBz1iTAETpDp-19" target="Vr0Jnky3QBz1iTAETpDp-23">
          <mxGeometry relative="1" as="geometry" />
        </mxCell>
        <mxCell id="Vr0Jnky3QBz1iTAETpDp-82" style="edgeStyle=none;rounded=0;jumpSize=6;orthogonalLoop=1;jettySize=auto;html=1;entryX=0;entryY=0.5;entryDx=0;entryDy=0;strokeColor=#999999;strokeWidth=1;endArrow=none;endFill=0;exitX=1;exitY=0.5;exitDx=0;exitDy=0;" edge="1" parent="1" source="Vr0Jnky3QBz1iTAETpDp-19" target="Vr0Jnky3QBz1iTAETpDp-24">
          <mxGeometry relative="1" as="geometry" />
        </mxCell>
        <mxCell id="Vr0Jnky3QBz1iTAETpDp-83" style="edgeStyle=none;rounded=0;jumpSize=6;orthogonalLoop=1;jettySize=auto;html=1;entryX=0;entryY=0.5;entryDx=0;entryDy=0;strokeColor=#999999;strokeWidth=1;endArrow=none;endFill=0;" edge="1" parent="1" source="Vr0Jnky3QBz1iTAETpDp-19" target="Vr0Jnky3QBz1iTAETpDp-25">
          <mxGeometry relative="1" as="geometry" />
        </mxCell>
        <mxCell id="Vr0Jnky3QBz1iTAETpDp-84" style="edgeStyle=none;rounded=0;jumpSize=6;orthogonalLoop=1;jettySize=auto;html=1;strokeColor=#999999;strokeWidth=1;endArrow=none;endFill=0;exitX=1;exitY=0.5;exitDx=0;exitDy=0;" edge="1" parent="1" source="Vr0Jnky3QBz1iTAETpDp-19">
          <mxGeometry relative="1" as="geometry">
            <mxPoint x="315" y="210" as="targetPoint" />
          </mxGeometry>
        </mxCell>
        <mxCell id="Vr0Jnky3QBz1iTAETpDp-85" style="edgeStyle=none;rounded=0;jumpSize=6;orthogonalLoop=1;jettySize=auto;html=1;entryX=0;entryY=0.5;entryDx=0;entryDy=0;strokeColor=#999999;strokeWidth=1;endArrow=none;endFill=0;exitX=1;exitY=0.5;exitDx=0;exitDy=0;" edge="1" parent="1" source="Vr0Jnky3QBz1iTAETpDp-19" target="Vr0Jnky3QBz1iTAETpDp-27">
          <mxGeometry relative="1" as="geometry" />
        </mxCell>
        <mxCell id="Vr0Jnky3QBz1iTAETpDp-86" style="edgeStyle=none;rounded=0;jumpSize=6;orthogonalLoop=1;jettySize=auto;html=1;entryX=0;entryY=0.5;entryDx=0;entryDy=0;strokeColor=#999999;strokeWidth=1;endArrow=none;endFill=0;exitX=1;exitY=0.5;exitDx=0;exitDy=0;" edge="1" parent="1" source="Vr0Jnky3QBz1iTAETpDp-19" target="Vr0Jnky3QBz1iTAETpDp-28">
          <mxGeometry relative="1" as="geometry" />
        </mxCell>
        <mxCell id="Vr0Jnky3QBz1iTAETpDp-19" value="" style="ellipse;whiteSpace=wrap;html=1;aspect=fixed;fillColor=#bac8d3;strokeColor=#23445d;" vertex="1" parent="1">
          <mxGeometry x="255" y="170" width="20" height="20" as="geometry" />
        </mxCell>
        <mxCell id="Vr0Jnky3QBz1iTAETpDp-87" style="edgeStyle=none;rounded=0;jumpSize=6;orthogonalLoop=1;jettySize=auto;html=1;entryX=0;entryY=0.5;entryDx=0;entryDy=0;strokeColor=#999999;strokeWidth=1;endArrow=none;endFill=0;exitX=1;exitY=0.5;exitDx=0;exitDy=0;" edge="1" parent="1" source="Vr0Jnky3QBz1iTAETpDp-20" target="Vr0Jnky3QBz1iTAETpDp-21">
          <mxGeometry relative="1" as="geometry" />
        </mxCell>
        <mxCell id="Vr0Jnky3QBz1iTAETpDp-88" style="edgeStyle=none;rounded=0;jumpSize=6;orthogonalLoop=1;jettySize=auto;html=1;entryX=0;entryY=0.5;entryDx=0;entryDy=0;strokeColor=#999999;strokeWidth=1;endArrow=none;endFill=0;exitX=1;exitY=0.5;exitDx=0;exitDy=0;" edge="1" parent="1" source="Vr0Jnky3QBz1iTAETpDp-20" target="Vr0Jnky3QBz1iTAETpDp-22">
          <mxGeometry relative="1" as="geometry" />
        </mxCell>
        <mxCell id="Vr0Jnky3QBz1iTAETpDp-89" style="edgeStyle=none;rounded=0;jumpSize=6;orthogonalLoop=1;jettySize=auto;html=1;entryX=0;entryY=0.5;entryDx=0;entryDy=0;strokeColor=#999999;strokeWidth=1;endArrow=none;endFill=0;exitX=1;exitY=0.5;exitDx=0;exitDy=0;" edge="1" parent="1" source="Vr0Jnky3QBz1iTAETpDp-20" target="Vr0Jnky3QBz1iTAETpDp-23">
          <mxGeometry relative="1" as="geometry" />
        </mxCell>
        <mxCell id="Vr0Jnky3QBz1iTAETpDp-90" style="edgeStyle=none;rounded=0;jumpSize=6;orthogonalLoop=1;jettySize=auto;html=1;entryX=0;entryY=0.5;entryDx=0;entryDy=0;strokeColor=#999999;strokeWidth=1;endArrow=none;endFill=0;exitX=1;exitY=0.5;exitDx=0;exitDy=0;" edge="1" parent="1" source="Vr0Jnky3QBz1iTAETpDp-20" target="Vr0Jnky3QBz1iTAETpDp-24">
          <mxGeometry relative="1" as="geometry" />
        </mxCell>
        <mxCell id="Vr0Jnky3QBz1iTAETpDp-91" style="edgeStyle=none;rounded=0;jumpSize=6;orthogonalLoop=1;jettySize=auto;html=1;entryX=0;entryY=0.5;entryDx=0;entryDy=0;strokeColor=#999999;strokeWidth=1;endArrow=none;endFill=0;exitX=1;exitY=0.5;exitDx=0;exitDy=0;" edge="1" parent="1" source="Vr0Jnky3QBz1iTAETpDp-20" target="Vr0Jnky3QBz1iTAETpDp-25">
          <mxGeometry relative="1" as="geometry" />
        </mxCell>
        <mxCell id="Vr0Jnky3QBz1iTAETpDp-92" style="edgeStyle=none;rounded=0;jumpSize=6;orthogonalLoop=1;jettySize=auto;html=1;strokeColor=#999999;strokeWidth=1;endArrow=none;endFill=0;" edge="1" parent="1" source="Vr0Jnky3QBz1iTAETpDp-20">
          <mxGeometry relative="1" as="geometry">
            <mxPoint x="315" y="210" as="targetPoint" />
          </mxGeometry>
        </mxCell>
        <mxCell id="Vr0Jnky3QBz1iTAETpDp-93" style="edgeStyle=none;rounded=0;jumpSize=6;orthogonalLoop=1;jettySize=auto;html=1;entryX=0;entryY=0.5;entryDx=0;entryDy=0;strokeColor=#999999;strokeWidth=1;endArrow=none;endFill=0;exitX=1;exitY=0.5;exitDx=0;exitDy=0;" edge="1" parent="1" source="Vr0Jnky3QBz1iTAETpDp-20" target="Vr0Jnky3QBz1iTAETpDp-27">
          <mxGeometry relative="1" as="geometry" />
        </mxCell>
        <mxCell id="Vr0Jnky3QBz1iTAETpDp-94" style="edgeStyle=none;rounded=0;jumpSize=6;orthogonalLoop=1;jettySize=auto;html=1;strokeColor=#999999;strokeWidth=1;endArrow=none;endFill=0;exitX=1;exitY=0.5;exitDx=0;exitDy=0;" edge="1" parent="1" source="Vr0Jnky3QBz1iTAETpDp-20">
          <mxGeometry relative="1" as="geometry">
            <mxPoint x="315" y="270" as="targetPoint" />
          </mxGeometry>
        </mxCell>
        <mxCell id="Vr0Jnky3QBz1iTAETpDp-20" value="" style="ellipse;whiteSpace=wrap;html=1;aspect=fixed;fillColor=#bac8d3;strokeColor=#23445d;" vertex="1" parent="1">
          <mxGeometry x="255" y="200" width="20" height="20" as="geometry" />
        </mxCell>
        <mxCell id="Vr0Jnky3QBz1iTAETpDp-21" value="" style="ellipse;whiteSpace=wrap;html=1;aspect=fixed;fillColor=#b0e3e6;strokeColor=#0e8088;" vertex="1" parent="1">
          <mxGeometry x="315" y="50" width="20" height="20" as="geometry" />
        </mxCell>
        <mxCell id="Vr0Jnky3QBz1iTAETpDp-22" value="" style="ellipse;whiteSpace=wrap;html=1;aspect=fixed;fillColor=#b0e3e6;strokeColor=#0e8088;" vertex="1" parent="1">
          <mxGeometry x="315" y="80" width="20" height="20" as="geometry" />
        </mxCell>
        <mxCell id="Vr0Jnky3QBz1iTAETpDp-23" value="" style="ellipse;whiteSpace=wrap;html=1;aspect=fixed;fillColor=#b0e3e6;strokeColor=#0e8088;" vertex="1" parent="1">
          <mxGeometry x="315" y="110" width="20" height="20" as="geometry" />
        </mxCell>
        <mxCell id="Vr0Jnky3QBz1iTAETpDp-24" value="" style="ellipse;whiteSpace=wrap;html=1;aspect=fixed;fillColor=#b0e3e6;strokeColor=#0e8088;" vertex="1" parent="1">
          <mxGeometry x="315" y="140" width="20" height="20" as="geometry" />
        </mxCell>
        <mxCell id="Vr0Jnky3QBz1iTAETpDp-25" value="" style="ellipse;whiteSpace=wrap;html=1;aspect=fixed;fillColor=#b0e3e6;strokeColor=#0e8088;" vertex="1" parent="1">
          <mxGeometry x="315" y="170" width="20" height="20" as="geometry" />
        </mxCell>
        <mxCell id="Vr0Jnky3QBz1iTAETpDp-26" value="" style="ellipse;whiteSpace=wrap;html=1;aspect=fixed;fillColor=#b0e3e6;strokeColor=#0e8088;" vertex="1" parent="1">
          <mxGeometry x="315" y="200" width="20" height="20" as="geometry" />
        </mxCell>
        <mxCell id="Vr0Jnky3QBz1iTAETpDp-27" value="" style="ellipse;whiteSpace=wrap;html=1;aspect=fixed;fillColor=#b0e3e6;strokeColor=#0e8088;" vertex="1" parent="1">
          <mxGeometry x="315" y="230" width="20" height="20" as="geometry" />
        </mxCell>
        <mxCell id="Vr0Jnky3QBz1iTAETpDp-28" value="" style="ellipse;whiteSpace=wrap;html=1;aspect=fixed;fillColor=#b0e3e6;strokeColor=#0e8088;" vertex="1" parent="1">
          <mxGeometry x="315" y="260" width="20" height="20" as="geometry" />
        </mxCell>
        <mxCell id="Vr0Jnky3QBz1iTAETpDp-111" value="Input layer" style="text;html=1;strokeColor=none;fillColor=none;align=center;verticalAlign=middle;whiteSpace=wrap;rounded=0;rotation=-90;" vertex="1" parent="1">
          <mxGeometry x="28" y="150" width="60" height="30" as="geometry" />
        </mxCell>
        <mxCell id="Vr0Jnky3QBz1iTAETpDp-112" value="Output layer" style="text;html=1;strokeColor=none;fillColor=none;align=center;verticalAlign=middle;whiteSpace=wrap;rounded=0;rotation=-90;" vertex="1" parent="1">
          <mxGeometry x="315" y="140" width="70" height="30" as="geometry" />
        </mxCell>
        <mxCell id="Vr0Jnky3QBz1iTAETpDp-113" value="Bottleneck" style="text;html=1;strokeColor=none;fillColor=none;align=center;verticalAlign=middle;whiteSpace=wrap;rounded=0;fontSize=10;" vertex="1" parent="1">
          <mxGeometry x="175" y="100" width="60" height="30" as="geometry" />
        </mxCell>
        <mxCell id="Vr0Jnky3QBz1iTAETpDp-114" value="" style="whiteSpace=wrap;html=1;fontSize=10;fillColor=none;dashed=1;strokeColor=#CCCCCC;" vertex="1" parent="1">
          <mxGeometry x="168.5" y="101" width="73" height="129" as="geometry" />
        </mxCell>
        <mxCell id="Vr0Jnky3QBz1iTAETpDp-117" value="" style="strokeWidth=1;html=1;shape=mxgraph.flowchart.annotation_1;align=left;pointerEvents=1;dashed=1;strokeColor=#CCCCCC;fontSize=10;fillColor=none;rotation=90;" vertex="1" parent="1">
          <mxGeometry x="145" y="-35" width="20" height="170" as="geometry" />
        </mxCell>
        <mxCell id="Vr0Jnky3QBz1iTAETpDp-118" value="" style="strokeWidth=1;html=1;shape=mxgraph.flowchart.annotation_1;align=left;pointerEvents=1;dashed=1;strokeColor=#CCCCCC;fontSize=10;fillColor=none;rotation=90;" vertex="1" parent="1">
          <mxGeometry x="243.5" y="-30" width="20" height="170" as="geometry" />
        </mxCell>
        <mxCell id="Vr0Jnky3QBz1iTAETpDp-119" value="Encoder" style="text;html=1;strokeColor=none;fillColor=none;align=center;verticalAlign=middle;whiteSpace=wrap;rounded=0;dashed=1;strokeWidth=1;fontSize=10;" vertex="1" parent="1">
          <mxGeometry x="70" y="24" width="60" height="20" as="geometry" />
        </mxCell>
        <mxCell id="Vr0Jnky3QBz1iTAETpDp-120" value="Decoder" style="text;html=1;strokeColor=none;fillColor=none;align=center;verticalAlign=middle;whiteSpace=wrap;rounded=0;dashed=1;strokeWidth=1;fontSize=10;" vertex="1" parent="1">
          <mxGeometry x="275" y="30" width="60" height="20" as="geometry" />
        </mxCell>
      </root>
    </mxGraphModel>
  </diagram>
</mxfile>
